<svg xmlns="http://www.w3.org/2000/svg" xmlns:xlink="http://www.w3.org/1999/xlink" width="128" height="128" viewBox="0 0 128 128"><defs><style>.a{clip-path:url(#c);}.b{fill:url(#a);}</style><linearGradient id="a" x1="0.5" x2="0.5" y2="1" gradientUnits="objectBoundingBox"><stop offset="0" stop-color="#e9e9e9"/><stop offset="1" stop-color="#cbcbcb"/></linearGradient><clipPath id="c"><rect width="128" height="128"/></clipPath></defs><g id="b" class="a"><path class="b" d="M63.64,108.639a44.859,44.859,0,1,1,16.933-3.3A44.851,44.851,0,0,1,63.64,108.639ZM65.982,69.8a10.29,10.29,0,0,0,.452,1.464,7.09,7.09,0,0,0,2.021,2.83,7.74,7.74,0,0,0,3.059,1.617,13.068,13.068,0,0,0,3.357.387,23.036,23.036,0,0,0,5.4-.668l.457-2.813c.221-1.243.363-2.113.422-2.584a14.152,14.152,0,0,1-1.538.5c-.4.1-.88.191-1.424.273a9.771,9.771,0,0,1-1.415.123,5.1,5.1,0,0,1-2.163-.457A2.907,2.907,0,0,1,73.175,69.1a5.137,5.137,0,0,1-.449-2.267,5.248,5.248,0,0,1,.5-2.347,3.424,3.424,0,0,1,1.547-1.546,5.294,5.294,0,0,1,2.435-.536,13.657,13.657,0,0,1,4.376.855c-.173,3.048-.343,5.765-.5,8.075-.082,1.128-.219,2.577-.406,4.307,1.493-.024,2.764-.035,3.776-.035s2.142.012,3.318.035c.069-2.287.139-3.99.207-5.063a29.234,29.234,0,0,1,.545-4.412,5.657,5.657,0,0,1,.757-1.881,3.461,3.461,0,0,1,1.231-1.143,3.82,3.82,0,0,1,1.813-.421,2.553,2.553,0,0,1,1.839.668,3.162,3.162,0,0,1,.695,2.32c0,.992-.076,2.52-.227,4.544S94.3,74.088,94.1,75.64c1.306-.024,2.59-.035,3.816-.035,1.109,0,2.286.012,3.5.035,0-.808,0-1.392.009-1.837.005-.484.032-1.1.078-1.837l.385-5.924c.057-.792.1-1.458.113-1.977.018-.536.026-.947.026-1.257a6.966,6.966,0,0,0-.352-2.259,4.282,4.282,0,0,0-1.335-1.863,5.683,5.683,0,0,0-2.381-1.169,12.464,12.464,0,0,0-2.89-.334,12.617,12.617,0,0,0-1.5.088,10.139,10.139,0,0,0-1.336.246,6.708,6.708,0,0,0-1.071.369,6.232,6.232,0,0,0-1.731,1.187,11.717,11.717,0,0,0-.949,1.1c.129-2.18.22-3.577.277-4.272l.365-4.253c-1.137.024-2.343.035-3.584.035-.933,0-2.156-.012-3.636-.035,0,1.786-.027,3.649-.08,5.537-.047,1.719-.12,3.568-.215,5.5l-.065-.961c-.057-.929-.1-1.63-.114-2.083-.017-.424-.043-.859-.079-1.292l-.035-.4a25.947,25.947,0,0,0-3.128-.571,24.541,24.541,0,0,0-2.514-.131,15.794,15.794,0,0,0-3.885.448,7.483,7.483,0,0,0-3.2,1.758,8.255,8.255,0,0,0-2.18,3.331q-.029.081-.058.162c.121-1.717.264-3.48.423-5.241-1.113.024-2.218.035-3.283.035-.968,0-2.221-.012-3.723-.035l-.137,3.674c-.08,1.691-.143,2.9-.189,3.586a18.976,18.976,0,0,1-.3,2.355,5.439,5.439,0,0,1-.423,1.248,3.465,3.465,0,0,1-.529.808,2.884,2.884,0,0,1-.617.527,3.522,3.522,0,0,1-.811.352,3.032,3.032,0,0,1-.846.123,2.65,2.65,0,0,1-1.789-.651,3.257,3.257,0,0,1-.749-2.5c0-.131,0-.389.009-.745.007-.383.051-1.084.132-2.085l.545-6.7c-1.257.024-2.4.035-3.41.035s-2.263-.012-3.71-.035c0,.976-.024,2.017-.07,3.093-.072,1.835-.147,3.428-.229,4.869l-.159,2.26a6.227,6.227,0,0,0-.187-.863,5.119,5.119,0,0,0-.765-1.573,4.888,4.888,0,0,0-1.151-1.151,5.259,5.259,0,0,0-1.2-.651,9.055,9.055,0,0,0-1.494-.36,9.847,9.847,0,0,0,1.485-.527,5.678,5.678,0,0,0,1.134-.739,5.19,5.19,0,0,0,1.046-1.186,5.817,5.817,0,0,0,.721-1.626,7.127,7.127,0,0,0,.255-1.916,6.6,6.6,0,0,0-.439-2.407,5.018,5.018,0,0,0-1.072-1.687,5.173,5.173,0,0,0-1.539-1,7.93,7.93,0,0,0-2.153-.562A27.5,27.5,0,0,0,38,51.54c-1.223,0-2.7.027-4.378.079s-3.194.078-4.465.078c-.923,0-2.17-.018-3.709-.052.012.952.017,1.666.017,2.18,0,1.425-.056,3.927-.167,7.435-.113,3.573-.225,6.287-.342,8.3-.083,1.476-.248,3.522-.492,6.082l3.41-.018,4.623.018c1.8,0,3.52-.024,5.125-.07a32.268,32.268,0,0,0,3.331-.211,8.473,8.473,0,0,0,2.2-.7,5.656,5.656,0,0,0,1.741-1.23,6,6,0,0,0,1.23-2.021c.075-.2.142-.412.2-.622a6.867,6.867,0,0,0,.341,2.134,3.994,3.994,0,0,0,1.283,1.758,5.652,5.652,0,0,0,2.18,1.1,10.347,10.347,0,0,0,2.627.326,11.678,11.678,0,0,0,1.7-.123,8.323,8.323,0,0,0,1.477-.343,6.677,6.677,0,0,0,1.16-.518,5.613,5.613,0,0,0,.958-.694,10.471,10.471,0,0,0,1.072-1.187l.02,2.408c1.126-.024,2.244-.035,3.324-.035.887,0,2.012.012,3.343.035.048-2.12.108-4.086.178-5.84ZM35.275,70.823H31.9l.217-5.063h3.71a8.448,8.448,0,0,1,1.758.132,2.458,2.458,0,0,1,.949.43,1.882,1.882,0,0,1,.58.739,2.524,2.524,0,0,1,.194,1.02,3.012,3.012,0,0,1-.238,1.212,2.168,2.168,0,0,1-.643.861,3.19,3.19,0,0,1-1.179.51A8.943,8.943,0,0,1,35.275,70.823ZM34.8,61H32.3l.22-4.711h3.163a6.631,6.631,0,0,1,2.093.247,1.834,1.834,0,0,1,.993.755,2.212,2.212,0,0,1,.308,1.16,2.955,2.955,0,0,1-.149.914,2.124,2.124,0,0,1-.51.826,2.072,2.072,0,0,1-.854.527,5.369,5.369,0,0,1-1.012.22A16.825,16.825,0,0,1,34.8,61Z" transform="translate(0.36 0.36)"/></g></svg>